<svg width="32" height="32" viewBox="0 0 32 32" fill="none" xmlns="http://www.w3.org/2000/svg">
  <path d="M25.7618 7.41625C25.5593 7.31162 25.3621 7.19689 25.1711 7.0725C24.6157 6.70522 24.1064 6.27254 23.6543 5.78375C22.523 4.48938 22.1005 3.17625 21.9449 2.25688H21.9511C21.8211 1.49375 21.8749 1 21.883 1H16.7305V20.9238C16.7305 21.1913 16.7305 21.4556 16.7193 21.7169C16.7193 21.7494 16.7161 21.7794 16.7143 21.8144C16.7143 21.8288 16.7143 21.8438 16.7111 21.8588V21.87C16.6568 22.5849 16.4277 23.2754 16.0438 23.8809C15.66 24.4864 15.1332 24.9884 14.5099 25.3425C13.8602 25.7121 13.1254 25.906 12.378 25.905C9.97738 25.905 8.03176 23.9475 8.03176 21.53C8.03176 19.1125 9.97738 17.155 12.378 17.155C12.8324 17.1546 13.2841 17.2261 13.7161 17.3669L13.7224 12.1206C12.4107 11.9512 11.0782 12.0554 9.80887 12.4268C8.53952 12.7981 7.36091 13.4285 6.34738 14.2781C5.45931 15.0498 4.71269 15.9704 4.14113 16.9988C3.92363 17.3738 3.10301 18.8806 3.00363 21.3263C2.94113 22.7144 3.35801 24.1525 3.55676 24.7469V24.7594C3.68176 25.1094 4.16613 26.3038 4.95551 27.3106C5.59201 28.1183 6.34405 28.8278 7.18738 29.4163V29.4038L7.19988 29.4163C9.69426 31.1113 12.4599 31 12.4599 31C12.9386 30.9806 14.5424 31 16.3636 30.1369C18.3836 29.18 19.5336 27.7544 19.5336 27.7544C20.2683 26.9025 20.8525 25.9318 21.2611 24.8838C21.7274 23.6581 21.883 22.1881 21.883 21.6006V11.0306C21.9455 11.0681 22.778 11.6188 22.778 11.6188C22.778 11.6188 23.9774 12.3875 25.8486 12.8881C27.1911 13.2444 28.9999 13.3194 28.9999 13.3194V8.20438C28.3661 8.27313 27.0793 8.07313 25.7618 7.41625Z" fill="white" />
</svg>