<svg width="32" height="32" viewBox="0 0 32 32" fill="none" xmlns="http://www.w3.org/2000/svg">
  <path d="M16.0013 2.66699C23.3653 2.66699 29.3347 8.63633 29.3347 16.0003C29.3347 23.3643 23.3653 29.3337 16.0013 29.3337C13.645 29.3377 11.3301 28.7141 9.29466 27.527L2.67332 29.3337L4.47599 22.7097C3.28793 20.6736 2.66386 18.3577 2.66799 16.0003C2.66799 8.63633 8.63732 2.66699 16.0013 2.66699ZM11.4573 9.73366L11.1907 9.74433C11.0182 9.75621 10.8498 9.80149 10.6947 9.87766C10.5501 9.95967 10.4181 10.0621 10.3027 10.1817C10.1427 10.3323 10.052 10.463 9.95466 10.5897C9.46148 11.2309 9.19595 12.0181 9.19999 12.827C9.20266 13.4803 9.37332 14.1163 9.63999 14.711C10.1853 15.9137 11.0827 17.187 12.2667 18.367C12.552 18.651 12.832 18.9363 13.1333 19.2017C14.6046 20.4969 16.3577 21.431 18.2533 21.9297L19.0107 22.0457C19.2573 22.059 19.504 22.0403 19.752 22.0283C20.1402 22.0079 20.5193 21.9027 20.8627 21.7203C21.0371 21.6301 21.2075 21.5322 21.3733 21.427C21.3733 21.427 21.4298 21.3888 21.54 21.307C21.72 21.1737 21.8307 21.079 21.98 20.923C22.092 20.8074 22.1853 20.6732 22.26 20.5203C22.364 20.303 22.468 19.8883 22.5107 19.543C22.5427 19.279 22.5333 19.135 22.5293 19.0457C22.524 18.903 22.4053 18.755 22.276 18.6923L21.5 18.3443C21.5 18.3443 20.34 17.839 19.6307 17.5163C19.5564 17.484 19.4769 17.4655 19.396 17.4617C19.3048 17.4521 19.2125 17.4623 19.1256 17.4915C19.0386 17.5207 18.959 17.5683 18.892 17.631C18.8853 17.6283 18.796 17.7043 17.832 18.8723C17.7767 18.9467 17.7004 19.0029 17.6131 19.0337C17.5257 19.0646 17.4311 19.0688 17.3413 19.0457C17.2544 19.0225 17.1693 18.9931 17.0867 18.9577C16.9213 18.8883 16.864 18.8617 16.7507 18.8137C15.9852 18.4802 15.2766 18.029 14.6507 17.4763C14.4827 17.3297 14.3267 17.1697 14.1667 17.015C13.6421 16.5126 13.185 15.9443 12.8067 15.3243L12.728 15.1977C12.6723 15.1121 12.6267 15.0203 12.592 14.9243C12.5413 14.7283 12.6733 14.571 12.6733 14.571C12.6733 14.571 12.9973 14.2163 13.148 14.0243C13.2947 13.8377 13.4187 13.6563 13.4987 13.527C13.656 13.2737 13.7053 13.0137 13.6227 12.8123C13.2493 11.9003 12.8635 10.9932 12.4653 10.091C12.3867 9.91233 12.1533 9.78433 11.9413 9.75899C11.8693 9.7501 11.7973 9.74299 11.7253 9.73766C11.5463 9.72739 11.3668 9.72917 11.188 9.74299L11.4573 9.73366Z" fill="white" />
</svg>