<svg width="28" height="28" viewBox="0 0 28 28" fill="none" xmlns="http://www.w3.org/2000/svg">
  <g clip-path="url(#clip0_429_216)">
    <rect width="28" height="28" fill="#338AF3" />
    <path d="M8.53324 13.8308C8.81787 14.3655 9.18104 14.8602 9.6152 15.2968C10.7781 16.4664 12.3554 17.1234 14 17.1234C15.6446 17.1234 17.2219 16.4664 18.3848 15.2968C18.819 14.8602 19.1821 14.3655 19.4668 13.8308H22.9551C22.9551 15.0756 21.8782 16.084 20.6405 16.084H20.7148C20.7148 17.3226 19.7122 18.3309 18.4744 18.3309C18.4744 19.5757 17.4781 20.5841 16.2403 20.5841H11.7597C10.5219 20.5841 9.52556 19.5757 9.52556 18.3309C8.28782 18.3309 7.28525 17.3288 7.28524 16.084H7.3595C6.12176 16.084 5.04492 15.0756 5.04492 13.8308H8.53324Z" fill="#FFDA44" />
    <path d="M18.7342 10.8871L16.7971 11.802L17.8307 13.6879L15.7265 13.2834L15.4604 15.4182L13.9998 13.8435L12.5393 15.4182L12.267 13.2834L10.1628 13.6879L11.1902 11.802L9.25928 10.8871L11.1902 9.97215L10.1628 8.08625L12.267 8.49082L12.5331 6.35596L13.9936 7.92443L15.4542 6.35596L15.7327 8.49082L17.8368 8.08625L16.8095 9.97215L18.7342 10.8871Z" fill="#FFDA44" />
  </g>
  <defs>
    <clipPath id="clip0_429_216">
      <rect width="28" height="28" rx="6" fill="white" />
    </clipPath>
  </defs>
</svg>