<svg width="91" height="90" viewBox="0 0 91 90" fill="none" xmlns="http://www.w3.org/2000/svg">
  <path fill-rule="evenodd" clip-rule="evenodd" d="M28.049 20.4786V25.8036L21.6965 26.3211C19.5141 26.4968 17.4536 27.3991 15.8445 28.8838C14.2354 30.3685 13.1705 32.3499 12.8202 34.5111C12.6652 35.4786 12.5227 36.4474 12.3927 37.4174C12.3635 37.6521 12.4091 37.89 12.5229 38.0974C12.6366 38.3047 12.8128 38.4709 13.0265 38.5724L13.3152 38.7074C33.674 48.3449 58.0527 48.3449 78.4077 38.7074L78.6965 38.5724C78.9094 38.4703 79.0848 38.3039 79.1979 38.0966C79.311 37.8893 79.356 37.6517 79.3265 37.4174C79.1993 36.4466 79.058 35.4778 78.9027 34.5111C78.5524 32.3499 77.4876 30.3685 75.8785 28.8838C74.2693 27.3991 72.2089 26.4968 70.0265 26.3211L63.674 25.8074V20.4824C63.6744 18.9106 63.1106 17.3908 62.0852 16.1996C61.0598 15.0083 59.6408 14.2247 58.0865 13.9911L53.5115 13.3049C48.4396 12.5468 43.2833 12.5468 38.2115 13.3049L33.6365 13.9911C32.0828 14.2246 30.6643 15.0077 29.639 16.1982C28.6137 17.3886 28.0495 18.9075 28.049 20.4786ZM52.6752 18.8661C48.1578 18.1914 43.5652 18.1914 39.0477 18.8661L34.4727 19.5524C34.2508 19.5856 34.0481 19.6973 33.9015 19.8673C33.7549 20.0373 33.6742 20.2542 33.674 20.4786V25.4099C41.7924 24.9462 49.9306 24.9462 58.049 25.4099V20.4786C58.0488 20.2542 57.968 20.0373 57.8214 19.8673C57.6749 19.6973 57.4722 19.5856 57.2502 19.5524L52.6752 18.8661Z" fill="url(#paint0_linear_326_437)" />
  <path d="M80.054 45.2624C80.0465 45.1411 80.0098 45.0235 79.9468 44.9196C79.8839 44.8158 79.7966 44.7287 79.6926 44.666C79.5886 44.6033 79.4709 44.5668 79.3496 44.5596C79.2283 44.5525 79.1072 44.5749 78.9965 44.6249C58.1052 53.8761 33.6177 53.8761 12.7265 44.6249C12.6158 44.5749 12.4946 44.5525 12.3734 44.5596C12.2521 44.5668 12.1344 44.6033 12.0304 44.666C11.9263 44.7287 11.8391 44.8158 11.7761 44.9196C11.7132 45.0235 11.6764 45.1411 11.669 45.2624C11.2892 52.4417 11.6751 59.6411 12.8202 66.7386C13.1698 68.9006 14.2343 70.8828 15.8435 72.3683C17.4527 73.8537 19.5136 74.7566 21.6965 74.9324L28.7165 75.4949C40.1277 76.4174 51.5915 76.4174 63.0065 75.4949L70.0265 74.9324C72.2094 74.7566 74.2703 73.8537 75.8795 72.3683C77.4887 70.8828 78.5532 68.9006 78.9027 66.7386C80.0502 59.6324 80.4402 52.4324 80.054 45.2661" fill="url(#paint1_linear_326_437)" />
  <defs>
    <linearGradient id="paint0_linear_326_437" x1="45.863" y1="12.7363" x2="45.863" y2="76.1868" gradientUnits="userSpaceOnUse">
      <stop stop-color="#FBDC07" />
      <stop offset="1" stop-color="#FBC207" />
    </linearGradient>
    <linearGradient id="paint1_linear_326_437" x1="45.863" y1="12.7363" x2="45.863" y2="76.1868" gradientUnits="userSpaceOnUse">
      <stop stop-color="#FBDC07" />
      <stop offset="1" stop-color="#FBC207" />
    </linearGradient>
  </defs>
</svg>