<svg width="183" height="182" viewBox="0 0 183 182" fill="none" xmlns="http://www.w3.org/2000/svg">
  <path fill-rule="evenodd" clip-rule="evenodd" d="M91.5 0C104.84 0 116.848 7.30007 123.154 18.5199C144.794 15.5806 164.3 32.9511 164.3 54.6C164.3 56.1773 164.192 57.7621 163.98 59.3455C175.2 65.661 182.5 77.6688 182.5 91C182.5 104.331 175.2 116.339 163.98 122.654C164.192 124.238 164.3 125.823 164.3 127.4C164.3 149.049 144.794 166.374 123.154 163.48C116.848 174.7 104.84 182 91.5 182C78.1597 182 66.1519 174.7 59.8455 163.48C38.1602 166.374 18.7 149.049 18.7 127.4C18.7028 125.814 18.8106 124.226 19.0199 122.654C7.80008 116.339 0.5 104.331 0.5 91C0.5 77.6688 7.80008 65.661 19.0199 59.3455C18.8076 57.7621 18.7 56.1773 18.7 54.6C18.7 32.9511 38.1602 15.5806 59.8455 18.5199C66.1519 7.30007 78.1597 0 91.5 0ZM127.9 66.3927C124.361 62.8247 118.6 62.7993 115.032 66.3394L82.1156 99.0069L67.968 84.6727C64.4401 81.0994 58.6857 81.0602 55.1089 84.5838C51.5288 88.1136 51.4877 93.883 55.02 97.4606L75.5839 118.282C79.1216 121.864 84.8965 121.891 88.4696 118.344L127.856 79.2607C131.421 75.7218 131.437 69.9598 127.9 66.3927Z" fill="url(#paint0_linear_326_1994)" />
  <path d="M127.9 66.3927C124.361 62.8247 118.6 62.7993 115.032 66.3394L82.1156 99.0069L67.968 84.6727C64.4401 81.0994 58.6857 81.0602 55.1089 84.5838C51.5288 88.1136 51.4877 93.883 55.02 97.4606L75.5839 118.282C79.1216 121.864 84.8965 121.891 88.4696 118.344L127.856 79.2607C131.421 75.7218 131.437 69.9598 127.9 66.3927Z" fill="url(#paint1_linear_326_1994)" />
  <path fill-rule="evenodd" clip-rule="evenodd" d="M127.9 66.3927C124.361 62.8247 118.6 62.7994 115.032 66.3394L82.1155 99.0069L67.9679 84.6727C64.44 81.0994 58.6856 81.0602 55.1088 84.5838C51.5287 88.1136 51.4876 93.883 55.0199 97.4607L75.5838 118.282C79.1215 121.864 84.8964 121.891 88.4696 118.344L127.855 79.2607C131.421 75.7218 131.437 69.9598 127.9 66.3927Z" fill="url(#paint2_linear_326_1994)" />
  <path d="M127.9 66.3927C124.361 62.8247 118.6 62.7994 115.032 66.3394L82.1155 99.0069L67.9679 84.6727C64.44 81.0994 58.6856 81.0602 55.1088 84.5838C51.5287 88.1136 51.4876 93.883 55.0199 97.4607L75.5838 118.282C79.1215 121.864 84.8964 121.891 88.4696 118.344L127.855 79.2607C131.421 75.7218 131.437 69.9598 127.9 66.3927Z" fill="url(#paint3_linear_326_1994)" />
  <defs>
    <linearGradient id="paint0_linear_326_1994" x1="91.5" y1="0" x2="91.5" y2="182" gradientUnits="userSpaceOnUse">
      <stop stop-color="white" />
      <stop offset="1" stop-color="#FFF6BC" />
    </linearGradient>
    <linearGradient id="paint1_linear_326_1994" x1="91.5" y1="0" x2="91.5" y2="182" gradientUnits="userSpaceOnUse">
      <stop stop-color="white" />
      <stop offset="1" stop-color="#FFF6BC" />
    </linearGradient>
    <linearGradient id="paint2_linear_326_1994" x1="91.5" y1="46" x2="91.5" y2="164" gradientUnits="userSpaceOnUse">
      <stop stop-color="#CA9D89" />
      <stop offset="1" stop-color="#331609" />
    </linearGradient>
    <linearGradient id="paint3_linear_326_1994" x1="91.5" y1="46" x2="91.5" y2="164" gradientUnits="userSpaceOnUse">
      <stop stop-color="#CA9D89" />
      <stop offset="1" stop-color="#331609" />
    </linearGradient>
  </defs>
</svg>