<svg width="80" height="75" viewBox="0 0 80 75" fill="none" xmlns="http://www.w3.org/2000/svg">
  <g clip-path="url(#clip0_22_1451)">
    <path d="M70 57.5V27.5L40 22.5L10 27.5V57.5C10 60.8152 11.317 63.9946 13.6612 66.3388C16.0054 68.683 19.1848 70 22.5 70H57.5C60.8152 70 63.9946 68.683 66.3388 66.3388C68.683 63.9946 70 60.8152 70 57.5Z" fill="url(#paint0_linear_22_1451)" />
    <path d="M70 57.5V27.5L40 22.5L10 27.5V57.5C10 60.8152 11.317 63.9946 13.6612 66.3388C16.0054 68.683 19.1848 70 22.5 70H57.5C60.8152 70 63.9946 68.683 66.3388 66.3388C68.683 63.9946 70 60.8152 70 57.5Z" fill="url(#paint1_linear_22_1451)" />
    <path d="M70 57.5V27.5L40 22.5L10 27.5V57.5C10 60.8152 11.317 63.9946 13.6612 66.3388C16.0054 68.683 19.1848 70 22.5 70H57.5C60.8152 70 63.9946 68.683 66.3388 66.3388C68.683 63.9946 70 60.8152 70 57.5Z" fill="url(#paint2_radial_22_1451)" fill-opacity="0.3" />
    <path d="M70 22.5C70 19.1848 68.683 16.0054 66.3388 13.6612C63.9946 11.317 60.8152 10 57.5 10H22.5C19.1848 10 16.0054 11.317 13.6612 13.6612C11.317 16.0054 10 19.1848 10 22.5V30H70V22.5Z" fill="url(#paint3_linear_22_1451)" />
    <path d="M80 57.5C80 63.4674 77.6295 69.1903 73.4099 73.4099C69.1903 77.6295 63.4674 80 57.5 80C51.5326 80 45.8097 77.6295 41.5901 73.4099C37.3705 69.1903 35 63.4674 35 57.5C35 51.5326 37.3705 45.8097 41.5901 41.5901C45.8097 37.3705 51.5326 35 57.5 35C63.4674 35 69.1903 37.3705 73.4099 41.5901C77.6295 45.8097 80 51.5326 80 57.5Z" fill="url(#paint4_linear_22_1451)" />
    <path fill-rule="evenodd" clip-rule="evenodd" d="M57.5 45C58.163 45 58.7989 45.2634 59.2678 45.7322C59.7366 46.2011 60 46.837 60 47.5V55H65C65.663 55 66.2989 55.2634 66.7678 55.7322C67.2366 56.2011 67.5 56.837 67.5 57.5C67.5 58.163 67.2366 58.7989 66.7678 59.2678C66.2989 59.7366 65.663 60 65 60H57.5C56.837 60 56.2011 59.7366 55.7322 59.2678C55.2634 58.7989 55 58.163 55 57.5V47.5C55 46.837 55.2634 46.2011 55.7322 45.7322C56.2011 45.2634 56.837 45 57.5 45Z" fill="url(#paint5_linear_22_1451)" />
  </g>
  <defs>
    <linearGradient id="paint0_linear_22_1451" x1="31.43" y1="22.5" x2="46.635" y2="69.935" gradientUnits="userSpaceOnUse">
      <stop stop-color="#D4EDFF" />
      <stop offset="1" stop-color="#BDE4FF" />
    </linearGradient>
    <linearGradient id="paint1_linear_22_1451" x1="46.43" y1="41.93" x2="55.125" y2="80.77" gradientUnits="userSpaceOnUse">
      <stop stop-color="#DCF8FF" stop-opacity="0" />
      <stop offset="1" stop-color="#6C9BFF" stop-opacity="0.7" />
    </linearGradient>
    <radialGradient id="paint2_radial_22_1451" cx="0" cy="0" r="1" gradientUnits="userSpaceOnUse" gradientTransform="translate(59.285 63.52) rotate(88.7957) scale(33.9848 33.0726)">
      <stop offset="0.497" stop-color="#4A43CB" />
      <stop offset="1" stop-color="#4A43CB" stop-opacity="0" />
    </radialGradient>
    <linearGradient id="paint3_linear_22_1451" x1="12.41" y1="10" x2="20.13" y2="43.625" gradientUnits="userSpaceOnUse">
      <stop stop-color="#37BCFF" />
      <stop offset="1" stop-color="#2688FF" />
    </linearGradient>
    <linearGradient id="paint4_linear_22_1451" x1="42.5" y1="32.5" x2="65" y2="82.5" gradientUnits="userSpaceOnUse">
      <stop stop-color="#A95029" />
      <stop offset="1" stop-color="#7D381B" />
    </linearGradient>
    <linearGradient id="paint5_linear_22_1451" x1="56.095" y1="47.295" x2="52.545" y2="59.46" gradientUnits="userSpaceOnUse">
      <stop stop-color="#FDFDFD" />
      <stop offset="1" stop-color="#D1D1FF" />
    </linearGradient>
    <clipPath id="clip0_22_1451">
      <rect width="80" height="75" fill="white" />
    </clipPath>
  </defs>
</svg>