<svg width="150" height="150" viewBox="0 0 150 150" fill="none" xmlns="http://www.w3.org/2000/svg">
  <path d="M37.5 137.5H112.5C115.815 137.5 118.995 136.183 121.339 133.839C123.683 131.495 125 128.315 125 125V56.25L93.75 43.75L81.25 12.5H37.5C34.1848 12.5 31.0054 13.817 28.6612 16.1612C26.317 18.5054 25 21.6848 25 25V125C25 128.315 26.317 131.495 28.6612 133.839C31.0054 136.183 34.1848 137.5 37.5 137.5Z" fill="url(#paint0_linear_84_290)" />
  <path opacity="0.6" d="M37.5 138H112.5C115.815 138 118.995 136.683 121.339 134.339C123.683 131.995 125 128.815 125 125.5V56.75L93.75 44.25L81.25 13H37.5C34.1848 13 31.0054 14.317 28.6612 16.6612C26.317 19.0054 25 22.1848 25 25.5V125.5C25 128.815 26.317 131.995 28.6612 134.339C31.0054 136.683 34.1848 138 37.5 138Z" fill="url(#paint1_radial_84_290)" fill-opacity="0.5" />
  <path fill-rule="evenodd" clip-rule="evenodd" d="M90.6831 70.7246C91.4676 70.7246 92.2449 70.8785 92.9701 71.1777C93.6954 71.4771 94.3556 71.9166 94.9114 72.4704C95.467 73.0242 95.9085 73.6818 96.2096 74.4062C96.5108 75.1307 96.6655 75.9077 96.6655 76.6922C96.6655 77.4768 96.5107 78.2538 96.2096 78.9783C95.9085 79.7028 95.4672 80.3611 94.9114 80.9149L74.515 101.239C73.9599 101.793 73.3012 102.233 72.5764 102.533C71.8508 102.833 71.0728 102.987 70.2876 102.987C69.5023 102.987 68.7244 102.833 67.9988 102.533C67.274 102.233 66.6154 101.793 66.0602 101.239L53.822 89.0444C53.2663 88.4906 52.8249 87.8322 52.5238 87.1077C52.2228 86.3835 52.0679 85.6069 52.0679 84.8226C52.0679 84.0381 52.2227 83.261 52.5238 82.5366C52.8249 81.8121 53.2663 81.1537 53.822 80.5999C54.3778 80.046 55.038 79.6075 55.7633 79.3081C56.4886 79.0088 57.2657 78.8541 58.0503 78.8541C58.8348 78.8541 59.6121 79.0088 60.3373 79.3081C60.9719 79.5701 61.5561 79.9387 62.0645 80.3979L62.2777 80.5999L62.2786 80.6008L70.2867 88.5885L86.4557 72.4704C87.0115 71.9166 87.6709 71.4771 88.3961 71.1777C89.1213 70.8784 89.8986 70.7247 90.6831 70.7246ZM68.8884 100.842C68.8926 100.844 68.8971 100.845 68.9013 100.846C68.842 100.825 68.7828 100.803 68.7243 100.779L68.8884 100.842Z" fill="url(#paint2_linear_84_290)" />
  <path d="M81.25 46.875V12.5L125 56.25H90.625C88.1386 56.25 85.754 55.2623 83.9959 53.5041C82.2377 51.746 81.25 49.3614 81.25 46.875Z" fill="url(#paint3_linear_84_290)" />
  <defs>
    <linearGradient id="paint0_linear_84_290" x1="95" y1="12.5" x2="105.138" y2="117.937" gradientUnits="userSpaceOnUse">
      <stop stop-color="#37BCFF" />
      <stop offset="1" stop-color="#2688FF" />
    </linearGradient>
    <radialGradient id="paint1_radial_84_290" cx="0" cy="0" r="1" gradientUnits="userSpaceOnUse" gradientTransform="translate(129.169 16.9063) rotate(133.623) scale(78.5125 46.356)">
      <stop offset="0.362" stop-color="#0027A7" />
      <stop offset="1" stop-color="#0027A7" stop-opacity="0" />
    </radialGradient>
    <linearGradient id="paint2_linear_84_290" x1="81.1671" y1="108.996" x2="76.3869" y2="69.4682" gradientUnits="userSpaceOnUse">
      <stop offset="0.024" stop-color="#FBBA07" />
      <stop offset="0.807" stop-color="#FBDC07" />
    </linearGradient>
    <linearGradient id="paint3_linear_84_290" x1="103.05" y1="30.7313" x2="92.1125" y2="48.9563" gradientUnits="userSpaceOnUse">
      <stop stop-color="#BDE9FF" />
      <stop offset="1" stop-color="#8CD3FF" />
    </linearGradient>
  </defs>
</svg>