<svg width="91" height="91" viewBox="0 0 91 91" fill="none" xmlns="http://www.w3.org/2000/svg">
  <path d="M58.7052 8.9375C61.859 8.9375 63.9702 11.93 63.2502 14.7987L63.0665 15.3725L55.199 35.5625H64.6115C68.3052 35.5625 70.3565 39.515 68.7365 42.515L68.3615 43.1L40.349 80.7762C38.324 83.495 34.2702 81.6162 34.6227 78.5075L37.5665 52.595H27.1115C23.7102 52.595 21.5352 49.13 22.7802 46.0887L22.799 46.0475L37.4465 11.8175C37.8024 10.9658 38.4019 10.2381 39.1698 9.7258C39.9376 9.21345 40.8397 8.93922 41.7627 8.9375H58.7052Z" fill="url(#paint0_linear_139_264)" />
  <defs>
    <linearGradient id="paint0_linear_139_264" x1="45.8612" y1="8.9375" x2="45.8612" y2="82.0874" gradientUnits="userSpaceOnUse">
      <stop stop-color="#FBDC07" />
      <stop offset="1" stop-color="#FBC207" />
    </linearGradient>
  </defs>
</svg>