<svg width="32" height="32" viewBox="0 0 32 32" fill="none" xmlns="http://www.w3.org/2000/svg">
  <path d="M2.66675 10.2803V22.5003C2.66675 23.6053 3.10573 24.6652 3.88714 25.4466C4.66854 26.228 5.72835 26.6669 6.83341 26.6669H25.1667C26.2718 26.6669 27.3316 26.228 28.113 25.4466C28.8944 24.6652 29.3334 23.6053 29.3334 22.5003V10.3336L16.3881 17.1496C16.268 17.2128 16.1343 17.2457 15.9986 17.2455C15.8629 17.2452 15.7293 17.2119 15.6094 17.1483L2.66675 10.2803Z" fill="url(#paint0_linear_72_805)" />
  <path d="M2.68008 9.16483C2.76435 8.12117 3.23846 7.1475 4.00807 6.43756C4.77767 5.72762 5.78636 5.33345 6.83341 5.3335H25.1667C26.2718 5.3335 27.3316 5.77248 28.113 6.55388C28.8944 7.33529 29.3334 8.39509 29.3334 9.50016V10.4202L16.3881 17.2362C16.268 17.2994 16.1343 17.3323 15.9986 17.332C15.8629 17.3318 15.7293 17.2984 15.6094 17.2348L2.66675 10.3675V9.50016C2.66675 9.38727 2.67119 9.2755 2.68008 9.16483Z" fill="url(#paint1_linear_72_805)" />
  <defs>
    <linearGradient id="paint0_linear_72_805" x1="16.0001" y1="10.2803" x2="16.0001" y2="26.6669" gradientUnits="userSpaceOnUse">
      <stop stop-color="#501800" />
      <stop offset="1" stop-color="#A16045" />
    </linearGradient>
    <linearGradient id="paint1_linear_72_805" x1="16.0001" y1="5.3335" x2="16.0001" y2="17.332" gradientUnits="userSpaceOnUse">
      <stop stop-color="#611D00" />
      <stop offset="1" stop-color="#B4765C" />
    </linearGradient>
  </defs>
</svg>