<svg width="28" height="28" viewBox="0 0 28 28" fill="none" xmlns="http://www.w3.org/2000/svg">
  <g clip-path="url(#clip0_72_777)">
    <path d="M0.876159 8.491C1.20166 18.8376 9.69091 27.125 20.1162 27.125C24.1022 27.125 27.1162 24.0129 27.1162 20.0847C27.1162 19.5601 26.959 19.0475 26.6648 18.6131C26.3707 18.1787 25.9531 17.8424 25.466 17.6476L21.8697 16.2091C21.2868 15.9758 20.6482 15.9187 20.0331 16.0449C19.418 16.1711 18.8534 16.475 18.4094 16.919L16.6151 18.7139C16.5357 18.7933 16.4465 18.8026 16.3922 18.7863C14.6974 18.2684 13.1558 17.3423 11.9027 16.0892C10.6496 14.8361 9.72341 13.2944 9.20558 11.5996C9.18866 11.5448 9.19799 11.4555 9.27733 11.3762L11.0722 9.58183C11.5162 9.1378 11.8201 8.57326 11.9463 7.95816C12.0725 7.34307 12.0154 6.70447 11.7822 6.1215L10.3437 2.52525C10.1488 2.03813 9.81254 1.62056 9.37813 1.32641C8.94371 1.03226 8.43112 0.875029 7.90649 0.875C3.61024 0.875 0.809659 4.29392 0.876159 8.491Z" fill="url(#paint0_linear_72_777)" />
  </g>
  <defs>
    <linearGradient id="paint0_linear_72_777" x1="13.9956" y1="0.875" x2="21" y2="28.875" gradientUnits="userSpaceOnUse">
      <stop stop-color="#A16045" />
      <stop offset="1" stop-color="#611D00" />
    </linearGradient>
    <clipPath id="clip0_72_777">
      <rect width="28" height="28" fill="white" />
    </clipPath>
  </defs>
</svg>