<svg width="150" height="150" viewBox="0 0 150 150" fill="none" xmlns="http://www.w3.org/2000/svg">
  <path d="M54.7547 11.9203C50.6578 6.99844 42.1875 9.59062 42.1875 16.4203V36.8578C33.0516 42.0984 25.8891 49.8563 21.9891 60.3656C21.6516 61.2703 21.0234 61.7156 20.5313 61.8188C17.3773 62.4805 14.547 64.2072 12.5155 66.7089C10.4841 69.2107 9.37519 72.3352 9.375 75.5578V83.8078C9.375 90.45 14.0297 96.1828 20.5313 97.5516C21.0188 97.6547 21.6562 98.1 21.9891 99.0047C25.8891 109.519 33.0516 117.272 42.1875 122.517V126.563C42.1875 130.292 43.6691 133.869 46.3063 136.506C48.9435 139.143 52.5204 140.625 56.25 140.625H65.625C68.1114 140.625 70.496 139.637 72.2541 137.879C74.0123 136.121 75 133.736 75 131.25H93.75C93.75 133.736 94.7377 136.121 96.4959 137.879C98.254 139.637 100.639 140.625 103.125 140.625H112.5C116.23 140.625 119.806 139.143 122.444 136.506C125.081 133.869 126.562 130.292 126.562 126.563V113.203C135.295 104.414 140.625 92.8547 140.625 79.6875C140.625 49.0781 112.416 28.125 79.6875 28.125H78.6844C74.6953 27.7641 71.4797 26.8406 68.0391 24.6703C64.3875 22.3734 60.2625 18.5297 54.7547 11.9203Z" fill="url(#paint0_radial_84_295)" />
  <path d="M56.25 63.2812C56.25 65.1461 55.5092 66.9345 54.1906 68.2531C52.872 69.5717 51.0836 70.3125 49.2188 70.3125C47.3539 70.3125 45.5655 69.5717 44.2469 68.2531C42.9283 66.9345 42.1875 65.1461 42.1875 63.2812C42.1875 61.4164 42.9283 59.628 44.2469 58.3094C45.5655 56.9908 47.3539 56.25 49.2188 56.25C51.0836 56.25 52.872 56.9908 54.1906 58.3094C55.5092 59.628 56.25 61.4164 56.25 63.2812Z" fill="url(#paint1_linear_84_295)" />
  <path d="M65.0532 43.1812C65.4744 42.1608 66.0925 41.2333 66.8722 40.4518C67.6519 39.6703 68.578 39.0501 69.5974 38.6266C70.6169 38.203 71.7098 37.9845 72.8137 37.9834C73.9177 37.9823 75.011 38.1987 76.0313 38.6203L127.617 59.9203C128.659 60.3257 129.61 60.935 130.414 61.7125C131.217 62.49 131.858 63.42 132.297 64.4481C132.737 65.4762 132.967 66.5817 132.974 67.6999C132.981 68.818 132.765 69.9263 132.339 70.9599C131.912 71.9935 131.283 72.9316 130.49 73.7192C129.696 74.5067 128.753 75.128 127.716 75.5466C126.679 75.9652 125.569 76.1727 124.451 76.1569C123.333 76.1411 122.229 75.9023 121.205 75.4546L69.6141 54.1546C67.5544 53.3039 65.9169 51.67 65.0616 49.6122C64.2064 47.5544 64.2033 45.2412 65.0532 43.1812Z" fill="url(#paint2_linear_84_295)" />
  <path d="M113.981 72.4688C119.939 69.9687 124.849 65.484 127.876 59.7758C130.903 54.0676 131.862 47.4876 130.59 41.1529C129.317 34.8181 125.892 29.1188 120.895 25.0225C115.898 20.9261 109.638 18.685 103.176 18.6797C98.5784 18.6793 94.051 19.812 89.9948 21.9775C85.9385 24.1431 82.4784 27.2747 79.9203 31.0956C77.3623 34.9165 75.7851 39.3088 75.3284 43.8842C74.8716 48.4595 75.5493 53.077 77.3015 57.3281L113.981 72.4688Z" fill="url(#paint3_linear_84_295)" />
  <defs>
    <radialGradient id="paint0_radial_84_295" cx="0" cy="0" r="1" gradientUnits="userSpaceOnUse" gradientTransform="translate(49.626 14.8022) rotate(75.3764) scale(130.035 130.677)">
      <stop stop-color="#8CD8FF" />
      <stop offset="1" stop-color="#2688FF" />
    </radialGradient>
    <linearGradient id="paint1_linear_84_295" x1="44.3826" y1="54.2927" x2="52.4334" y2="70.3128" gradientUnits="userSpaceOnUse">
      <stop stop-color="#068BEB" />
      <stop offset="1" stop-color="#0027A7" />
    </linearGradient>
    <linearGradient id="paint2_linear_84_295" x1="104.599" y1="35.7776" x2="98.6962" y2="70.7046" gradientUnits="userSpaceOnUse">
      <stop stop-color="#068BEB" />
      <stop offset="1" stop-color="#0027A7" />
    </linearGradient>
    <linearGradient id="paint3_linear_84_295" x1="103.164" y1="76.5801" x2="107.341" y2="27.2293" gradientUnits="userSpaceOnUse">
      <stop stop-color="#FBBA07" />
      <stop offset="1" stop-color="#FBDC07" />
    </linearGradient>
  </defs>
</svg>