<svg width="80" height="72" viewBox="0 0 80 72" fill="none" xmlns="http://www.w3.org/2000/svg">
  <g clip-path="url(#clip0_22_1459)">
    <path d="M38.235 10.73C38.4672 10.4972 38.7431 10.3125 39.0468 10.1865C39.3506 10.0604 39.6762 9.99554 40.005 9.99554C40.3338 9.99554 40.6594 10.0604 40.9632 10.1865C41.2669 10.3125 41.5428 10.4972 41.775 10.73C47.975 16.95 54.845 20 62.5 20C63.163 20 63.7989 20.2634 64.2678 20.7322C64.7366 21.2011 65 21.837 65 22.5V37.505C65 53.6 56.795 64.54 40.79 69.87C40.2772 70.0408 39.7228 70.0408 39.21 69.87C23.21 64.54 15 53.6 15 37.505V22.5C15 21.837 15.2634 21.2011 15.7322 20.7322C16.2011 20.2634 16.837 20 17.5 20C25.15 20 32.02 16.945 38.235 10.73Z" fill="url(#paint0_radial_22_1459)" />
    <path d="M38.235 10.73C38.4672 10.4972 38.7431 10.3125 39.0468 10.1865C39.3506 10.0604 39.6762 9.99554 40.005 9.99554C40.3338 9.99554 40.6594 10.0604 40.9632 10.1865C41.2669 10.3125 41.5428 10.4972 41.775 10.73C47.975 16.95 54.845 20 62.5 20C63.163 20 63.7989 20.2634 64.2678 20.7322C64.7366 21.2011 65 21.837 65 22.5V37.505C65 53.6 56.795 64.54 40.79 69.87C40.2772 70.0408 39.7228 70.0408 39.21 69.87C23.21 64.54 15 53.6 15 37.505V22.5C15 21.837 15.2634 21.2011 15.7322 20.7322C16.2011 20.2634 16.837 20 17.5 20C25.15 20 32.02 16.945 38.235 10.73Z" fill="url(#paint1_radial_22_1459)" fill-opacity="0.5" />
    <path d="M75 52.5C75 55.4547 74.418 58.3806 73.2873 61.1104C72.1566 63.8402 70.4992 66.3206 68.4099 68.4099C66.3206 70.4992 63.8402 72.1566 61.1104 73.2873C58.3806 74.418 55.4547 75 52.5 75C49.5453 75 46.6194 74.418 43.8896 73.2873C41.1598 72.1566 38.6794 70.4992 36.5901 68.4099C34.5008 66.3206 32.8434 63.8402 31.7127 61.1104C30.582 58.3806 30 55.4547 30 52.5C30 46.5326 32.3705 40.8097 36.5901 36.5901C40.8097 32.3705 46.5326 30 52.5 30C58.4674 30 64.1903 32.3705 68.4099 36.5901C72.6295 40.8097 75 46.5326 75 52.5Z" fill="url(#paint2_linear_22_1459)" />
    <path fill-rule="evenodd" clip-rule="evenodd" d="M64.27 43.23C64.5028 43.4622 64.6875 43.7381 64.8135 44.0418C64.9396 44.3456 65.0045 44.6712 65.0045 45C65.0045 45.3288 64.9396 45.6545 64.8135 45.9582C64.6875 46.2619 64.5028 46.5378 64.27 46.77L49.27 61.77C49.0378 62.0028 48.7619 62.1875 48.4582 62.3136C48.1544 62.4396 47.8288 62.5045 47.5 62.5045C47.1711 62.5045 46.8455 62.4396 46.5418 62.3136C46.2381 62.1875 45.9622 62.0028 45.73 61.77L40.73 56.77C40.2606 56.3006 39.9968 55.6639 39.9968 55C39.9968 54.3361 40.2606 53.6994 40.73 53.23C41.1994 52.7606 41.8361 52.4969 42.5 52.4969C43.1639 52.4969 43.8006 52.7606 44.27 53.23L47.5 56.465L60.73 43.23C60.9622 42.9972 61.2381 42.8125 61.5418 42.6865C61.8455 42.5604 62.1711 42.4955 62.5 42.4955C62.8288 42.4955 63.1544 42.5604 63.4582 42.6865C63.7619 42.8125 64.0378 42.9972 64.27 43.23Z" fill="url(#paint3_linear_22_1459)" />
  </g>
  <defs>
    <radialGradient id="paint0_radial_22_1459" cx="0" cy="0" r="1" gradientUnits="userSpaceOnUse" gradientTransform="translate(-4.64499 -23.75) rotate(56.8559) scale(132.868 114.171)">
      <stop offset="0.357464" stop-color="#37BCFF" />
      <stop offset="0.861" stop-color="#2688FF" />
    </radialGradient>
    <radialGradient id="paint1_radial_22_1459" cx="0" cy="0" r="1" gradientUnits="userSpaceOnUse" gradientTransform="translate(50 60) rotate(90) scale(30 28.5714)">
      <stop offset="0.5" stop-color="#1E1868" />
      <stop offset="1" stop-color="#1E1868" stop-opacity="0" />
    </radialGradient>
    <linearGradient id="paint2_linear_22_1459" x1="31.605" y1="38.44" x2="62.665" y2="70.705" gradientUnits="userSpaceOnUse">
      <stop stop-color="#A95029" />
      <stop offset="1" stop-color="#7D381B" />
    </linearGradient>
    <linearGradient id="paint3_linear_22_1459" x1="44.69" y1="44.54" x2="49.73" y2="66.8" gradientUnits="userSpaceOnUse">
      <stop stop-color="white" />
      <stop offset="1" stop-color="#E3FFD9" />
    </linearGradient>
    <clipPath id="clip0_22_1459">
      <rect width="80" height="72" fill="white" />
    </clipPath>
  </defs>
</svg>