<svg width="32" height="32" viewBox="0 0 32 32" fill="none" xmlns="http://www.w3.org/2000/svg">
  <path fill-rule="evenodd" clip-rule="evenodd" d="M15.9998 2.66675C8.63584 2.66675 2.6665 8.63608 2.6665 16.0001C2.6665 18.5201 3.3665 20.8801 4.58384 22.8907L3.3945 26.9334C3.32622 27.1655 3.32172 27.4117 3.3815 27.6462C3.44127 27.8806 3.5631 28.0947 3.73418 28.2657C3.90527 28.4368 4.11928 28.5587 4.35373 28.6184C4.58817 28.6782 4.83439 28.6737 5.0665 28.6054L9.10917 27.4161C11.1875 28.6733 13.5708 29.3365 15.9998 29.3334C23.3638 29.3334 29.3332 23.3641 29.3332 16.0001C29.3332 8.63608 23.3638 2.66675 15.9998 2.66675ZM12.9838 19.0174C15.6812 21.7134 18.2558 22.0694 19.1652 22.1027C20.5478 22.1534 21.8945 21.0974 22.4185 19.8721C22.4841 19.7195 22.5078 19.5522 22.4872 19.3875C22.4666 19.2227 22.4023 19.0664 22.3012 18.9347C21.5705 18.0014 20.5825 17.3307 19.6172 16.6641C19.4157 16.5244 19.168 16.4683 18.926 16.5076C18.684 16.5469 18.4667 16.6785 18.3198 16.8747L17.5198 18.0947C17.4776 18.1601 17.412 18.2069 17.3365 18.2257C17.261 18.2445 17.1812 18.2339 17.1132 18.1961C16.5705 17.8854 15.7798 17.3574 15.2118 16.7894C14.6438 16.2214 14.1478 15.4667 13.8692 14.9587C13.8355 14.894 13.8259 14.8194 13.8423 14.7483C13.8587 14.6772 13.8999 14.6142 13.9585 14.5707L15.1905 13.6561C15.3668 13.5035 15.4807 13.2913 15.5102 13.06C15.5397 12.8287 15.4829 12.5947 15.3505 12.4027C14.7532 11.5281 14.0572 10.4161 13.0478 9.67875C12.9173 9.58496 12.7648 9.52647 12.605 9.50895C12.4452 9.49143 12.2836 9.51547 12.1358 9.57875C10.9092 10.1041 9.84784 11.4507 9.8985 12.8361C9.93184 13.7454 10.2878 16.3201 12.9838 19.0174Z" fill="#009EFF" />
</svg>