<svg width="43" height="27" viewBox="0 0 43 27" fill="none" xmlns="http://www.w3.org/2000/svg">
  <path d="M4.43364 26.223H0.331543L9.54876 0.609945H14.0135L23.2308 26.223H19.1287L11.8875 5.26232H11.6874L4.43364 26.223ZM5.12149 16.1929H18.4283V19.4446H5.12149V16.1929Z" fill="#331609" />
  <path d="M33.5807 26.5732C31.8632 26.5732 30.3291 26.2772 28.9784 25.6853C27.636 25.0933 26.573 24.272 25.7892 23.2215C25.0138 22.1626 24.597 20.937 24.5386 19.5446H28.4656C28.5156 20.3034 28.7699 20.962 29.2285 21.5206C29.6954 22.0709 30.304 22.4961 31.0544 22.7963C31.8048 23.0964 32.6386 23.2465 33.5557 23.2465C34.5646 23.2465 35.4567 23.0714 36.2321 22.7213C37.0158 22.3711 37.6286 21.8833 38.0705 21.258C38.5124 20.6243 38.7334 19.8948 38.7334 19.0694C38.7334 18.2106 38.5124 17.4561 38.0705 16.8057C37.637 16.1471 36.9991 15.6301 36.157 15.2549C35.3233 14.8797 34.3144 14.6921 33.1305 14.6921H30.9669V11.5405H33.1305C34.081 11.5405 34.9147 11.3696 35.6318 11.0278C36.3571 10.6859 36.9241 10.2107 37.3326 9.60205C37.7412 8.98506 37.9455 8.26386 37.9455 7.43844C37.9455 6.64637 37.7662 5.95851 37.4077 5.37488C37.0575 4.78291 36.5572 4.32018 35.9069 3.98667C35.2649 3.65317 34.5062 3.48642 33.6307 3.48642C32.797 3.48642 32.0174 3.64066 31.2921 3.94915C30.575 4.24931 29.9914 4.68286 29.5412 5.24982C29.0909 5.80844 28.8491 6.47961 28.8158 7.26335H25.0764C25.1181 5.87931 25.5266 4.66202 26.302 3.61148C27.0857 2.56094 28.1196 1.73969 29.4036 1.14772C30.6876 0.55575 32.1133 0.259766 33.6808 0.259766C35.3233 0.259766 36.7407 0.580763 37.9329 1.22276C39.1336 1.85642 40.059 2.70268 40.7094 3.76156C41.368 4.82043 41.6932 5.97936 41.6849 7.23834C41.6932 8.6724 41.293 9.88969 40.4843 10.8902C39.6838 11.8907 38.6166 12.5619 37.2826 12.9037V13.1038C38.9835 13.3623 40.3008 14.0376 41.2346 15.1299C42.1768 16.2221 42.6437 17.577 42.6354 19.1945C42.6437 20.6035 42.2518 21.8667 41.4598 22.9839C40.676 24.1011 39.6046 24.9807 38.2456 25.6227C36.8866 26.2564 35.3316 26.5732 33.5807 26.5732Z" fill="#331609" />
</svg>