<svg width="43" height="27" viewBox="0 0 43 27" fill="none" xmlns="http://www.w3.org/2000/svg">
  <path d="M4.43364 26.1356H0.331543L9.54876 0.522543H14.0135L23.2308 26.1356H19.1287L11.8875 5.17492H11.6874L4.43364 26.1356ZM5.12149 16.1055H18.4283V19.3572H5.12149V16.1055Z" fill="#331609" />
  <path d="M33.5807 26.4858C31.8632 26.4858 30.3291 26.1898 28.9784 25.5979C27.636 25.0059 26.573 24.1846 25.7892 23.1341C25.0138 22.0752 24.597 20.8496 24.5386 19.4572H28.4656C28.5156 20.216 28.7699 20.8746 29.2285 21.4332C29.6954 21.9835 30.304 22.4087 31.0544 22.7089C31.8048 23.009 32.6386 23.1591 33.5557 23.1591C34.5646 23.1591 35.4567 22.984 36.2321 22.6339C37.0158 22.2837 37.6286 21.7959 38.0705 21.1706C38.5124 20.5369 38.7334 19.8074 38.7334 18.982C38.7334 18.1232 38.5124 17.3687 38.0705 16.7183C37.637 16.0597 36.9991 15.5427 36.157 15.1675C35.3233 14.7923 34.3144 14.6047 33.1305 14.6047H30.9669V11.4531H33.1305C34.081 11.4531 34.9147 11.2822 35.6318 10.9404C36.3571 10.5985 36.9241 10.1233 37.3326 9.51464C37.7412 8.89766 37.9455 8.17646 37.9455 7.35104C37.9455 6.55896 37.7662 5.87111 37.4077 5.28748C37.0575 4.69551 36.5572 4.23277 35.9069 3.89927C35.2649 3.56577 34.5062 3.39901 33.6307 3.39901C32.797 3.39901 32.0174 3.55326 31.2921 3.86175C30.575 4.1619 29.9914 4.59546 29.5412 5.16242C29.0909 5.72103 28.8491 6.39221 28.8158 7.17595H25.0764C25.1181 5.79191 25.5266 4.57462 26.302 3.52408C27.0857 2.47354 28.1196 1.65229 29.4036 1.06032C30.6876 0.468348 32.1133 0.172363 33.6808 0.172363C35.3233 0.172363 36.7407 0.493361 37.9329 1.13536C39.1336 1.76901 40.059 2.61528 40.7094 3.67415C41.368 4.73303 41.6932 5.89196 41.6849 7.15093C41.6932 8.585 41.293 9.80229 40.4843 10.8028C39.6838 11.8033 38.6166 12.4745 37.2826 12.8163V13.0164C38.9835 13.2749 40.3008 13.9502 41.2346 15.0425C42.1768 16.1347 42.6437 17.4896 42.6354 19.107C42.6437 20.5161 42.2518 21.7792 41.4598 22.8965C40.676 24.0137 39.6046 24.8933 38.2456 25.5353C36.8866 26.169 35.3316 26.4858 33.5807 26.4858Z" fill="#331609" />
</svg>