<svg width="44" height="11" viewBox="0 0 44 11" fill="none" xmlns="http://www.w3.org/2000/svg">
  <path d="M8.56963 0.933105V10.1787H6.63744V2.52219H2.89947V10.1787H0.967285V0.933105H8.56963Z" fill="#331609" />
  <path d="M10.1765 10.1787V0.933105H13.8241C14.5254 0.933105 15.1228 1.06703 15.6164 1.33489C16.11 1.59974 16.4862 1.96842 16.745 2.44093C17.0068 2.91044 17.1378 3.45217 17.1378 4.06614C17.1378 4.6801 17.0053 5.22184 16.7405 5.69134C16.4756 6.16085 16.0919 6.52652 15.5893 6.78836C15.0897 7.05019 14.4848 7.18111 13.7745 7.18111H11.4495V5.6146H13.4585C13.8347 5.6146 14.1447 5.54989 14.3884 5.42048C14.6352 5.28805 14.8188 5.10597 14.9392 4.87423C15.0626 4.63947 15.1243 4.37011 15.1243 4.06614C15.1243 3.75916 15.0626 3.4913 14.9392 3.26256C14.8188 3.03082 14.6352 2.85175 14.3884 2.72534C14.1417 2.59593 13.8287 2.53122 13.4494 2.53122H12.1312V10.1787H10.1765Z" fill="#331609" />
  <path d="M18.1532 0.933105H20.1034V6.74773H20.1802L24.1755 0.933105H25.8865V10.1787H23.9317V4.35958H23.864L19.8461 10.1787H18.1532V0.933105Z" fill="#331609" />
  <path d="M27.2472 10.1787V0.933105H29.202V4.74782H33.1702V0.933105H35.1205V10.1787H33.1702V6.35948H29.202V10.1787H27.2472Z" fill="#331609" />
  <path d="M36.1257 2.54477V0.933105H43.7191V2.54477H40.8885V10.1787H38.9563V2.54477H36.1257Z" fill="#331609" />
</svg>