<svg width="44" height="10" viewBox="0 0 44 10" fill="none" xmlns="http://www.w3.org/2000/svg">
  <path d="M8.56963 0.0205078V9.26611H6.63744V1.6096H2.89947V9.26611H0.967285V0.0205078H8.56963Z" fill="#331609" />
  <path d="M10.1765 9.26611V0.0205078H13.8241C14.5254 0.0205078 15.1228 0.154437 15.6164 0.422295C16.11 0.687143 16.4862 1.05582 16.745 1.52834C17.0068 1.99784 17.1378 2.53957 17.1378 3.15354C17.1378 3.76751 17.0053 4.30924 16.7405 4.77875C16.4756 5.24825 16.0919 5.61392 15.5893 5.87576C15.0897 6.1376 14.4848 6.26852 13.7745 6.26852H11.4495V4.702H13.4585C13.8347 4.702 14.1447 4.63729 14.3884 4.50788C14.6352 4.37545 14.8188 4.19337 14.9392 3.96163C15.0626 3.72688 15.1243 3.45751 15.1243 3.15354C15.1243 2.84656 15.0626 2.5787 14.9392 2.34997C14.8188 2.11823 14.6352 1.93915 14.3884 1.81275C14.1417 1.68333 13.8287 1.61863 13.4494 1.61863H12.1312V9.26611H10.1765Z" fill="#331609" />
  <path d="M18.1532 0.0205078H20.1034V5.83513H20.1802L24.1755 0.0205078H25.8865V9.26611H23.9317V3.44698H23.864L19.8461 9.26611H18.1532V0.0205078Z" fill="#331609" />
  <path d="M27.2472 9.26611V0.0205078H29.202V3.83522H33.1702V0.0205078H35.1205V9.26611H33.1702V5.44688H29.202V9.26611H27.2472Z" fill="#331609" />
  <path d="M36.1257 1.63217V0.0205078H43.7191V1.63217H40.8885V9.26611H38.9563V1.63217H36.1257Z" fill="#331609" />
</svg>