<svg width="198" height="64" viewBox="0 0 198 64" fill="none" xmlns="http://www.w3.org/2000/svg">
  <mask id="mask0_71_580" style="mask-type:alpha" maskUnits="userSpaceOnUse" x="0" y="0" width="64" height="64">
    <path fill-rule="evenodd" clip-rule="evenodd" d="M15.8937 0.0280991L18.6291 0L47.0907 0.0109978C47.5223 0.0153978 47.7906 0.0207991 48.059 0.0280991C49.47 0.0655991 50.8933 0.1483 52.2888 0.3964C53.7054 0.6478 55.0228 1.0591 56.3089 1.7075C57.5729 2.3437 58.7309 3.1751 59.734 4.1687C60.7372 5.1599 61.5775 6.3045 62.2206 7.556C62.877 8.8296 63.2917 10.133 63.5458 11.5345C63.7966 12.915 63.8802 14.3231 63.9181 15.7191C63.9359 16.3597 63.9437 17.0004 63.947 17.6421L63.9509 18.783L63.9515 44.0654C63.9515 44.8263 63.9515 45.5871 63.947 46.3491C63.9437 46.9897 63.9359 47.6304 63.9181 48.271C63.8802 49.6659 63.7966 51.0751 63.5458 52.4545C63.2917 53.856 62.877 55.1605 62.2206 56.4341C61.5775 57.6845 60.7372 58.8291 59.734 59.8215C58.7309 60.8139 57.5729 61.6464 56.3089 62.2826C55.0228 62.931 53.7054 63.3423 52.2888 63.5937C50.8933 63.8418 49.47 63.9245 48.059 63.962L43.808 63.9951L16.8611 63.9791C16.4296 63.9747 16.1617 63.9693 15.8937 63.962C14.4826 63.9245 13.0593 63.8418 11.6639 63.5937C10.2473 63.3423 8.92993 62.931 7.64371 62.2826C6.37867 61.6464 5.22174 60.8139 4.2186 59.8215C3.21556 58.8291 2.3751 57.6845 1.73089 56.4341C1.07559 55.1605 0.660897 53.856 0.405691 52.4545C0.154881 51.0751 0.0724444 49.6659 0.0345731 48.271C0.0166867 47.6304 0.00889324 46.9897 0.00559573 46.3491L0.000701373 45.2068L0 19.9247C0 19.1638 -2.4196e-08 18.4019 0.00559573 17.6421C0.00889324 17.0004 0.0166867 16.3597 0.0345731 15.7191C0.0724444 14.3231 0.154881 12.915 0.405691 11.5345C0.660897 10.133 1.07559 8.8296 1.73089 7.556C2.3751 6.3045 3.21556 5.1599 4.2186 4.1687C5.22174 3.1751 6.37867 2.3437 7.64371 1.7075C8.92993 1.0591 10.2473 0.6478 11.6639 0.3964C13.0593 0.1483 14.4826 0.0655991 15.8937 0.0280991Z" fill="white" />
  </mask>
  <g mask="url(#mask0_71_580)">
    <path d="M63.9515 -0.00488281H0V63.9951H63.9515V-0.00488281Z" fill="#19AA1E" />
    <path fill-rule="evenodd" clip-rule="evenodd" d="M0 -0.00488281H63.9515V20.9951L0 10.9951V-0.00488281Z" fill="#FFB919" />
    <path fill-rule="evenodd" clip-rule="evenodd" d="M0 56.9951L63.9515 46.9951V63.9951H0V56.9951Z" fill="#82D714" />
    <path fill-rule="evenodd" clip-rule="evenodd" d="M0 9.72998L22.3228 13.2205C25.1016 11.4602 28.4075 10.4951 31.9758 10.4951C36.918 10.4951 41.357 12.3466 44.5891 15.5978C44.997 16.0081 45.3817 16.4371 45.7424 16.8826L63.9515 19.7299V22.2602L47.5914 19.7021C48.8068 22.0363 49.4625 24.637 49.4625 27.2911C49.4625 30.7199 48.6961 34.1387 47.112 37.571L47.0637 37.675L46.3909 39.1178H44.7999C41.5147 39.1178 39.3355 40.1013 37.9108 41.8442C36.792 43.2127 36.1451 45.0575 35.9275 47.0704L35.9209 47.1333L35.889 47.4549L35.8755 47.5948L35.8496 47.8685C35.7664 48.7672 35.7106 49.5293 35.6824 50.1504L63.9515 45.7299V48.2602L0 58.2602V55.7299L28.301 51.3045L28.2886 50.7364L28.2849 50.5762L28.2825 50.4941L28.2782 50.3673C28.2526 49.6785 28.1895 48.7955 28.0885 47.7254L28.0691 47.5225L28.0346 47.1711C27.8314 45.1476 27.1942 43.2794 26.0784 41.8906C24.6686 40.1358 22.5094 39.1379 19.2506 39.1181L19.1516 39.1178H17.5606L16.8878 37.675C15.2709 34.2077 14.489 30.7546 14.489 27.2911C14.489 22.9356 16.2547 18.7239 19.3624 15.5978C19.4522 15.5076 19.5428 15.4184 19.6343 15.3304L0 12.2602V9.72998Z" fill="white" />
    <path fill-rule="evenodd" clip-rule="evenodd" d="M31.9757 12.9951C40.9039 12.9951 46.9643 19.8724 46.9643 27.2911C46.9643 30.2695 46.315 33.3687 44.7999 36.6178C36.0145 36.6178 33.846 42.9142 33.436 46.8758L33.4097 47.1398C33.2708 48.5537 33.1904 49.6882 33.1685 50.5435L30.7889 50.9155L30.7883 50.8385C30.7793 49.942 30.6947 48.6844 30.5344 47.0657L30.5273 46.9951C30.1486 43.042 28.0256 36.6178 19.1515 36.6178C17.6364 33.3687 16.9871 30.2695 16.9871 27.2911C16.9871 19.8724 23.0475 12.9951 31.9757 12.9951Z" fill="#0073FA" />
  </g>
  <path fill-rule="evenodd" clip-rule="evenodd" d="M93.5292 15.4951C85.7351 15.4951 79.8896 20.2451 79.9395 28.4951H87.184C87.0841 25.1951 89.1825 21.9951 93.5292 21.9951C96.8267 21.9951 98.9251 24.1951 98.9251 26.9951C98.9251 29.8951 96.6269 31.4951 92.9297 33.2951C88.0834 35.6451 85.1856 36.7451 79.9395 38.4951V47.9951H106.919V41.4951H89.7321C92.2362 40.4504 94.6744 39.3032 96.8767 38.2451C102.722 35.4451 106.17 32.2951 106.17 26.6451C106.17 19.8451 101.074 15.4951 93.5292 15.4951ZM117.911 22.4951H131.9V15.9951H110.916V47.9951H117.911V22.4951ZM142.892 15.9951H135.897V47.9951H142.842L155.882 27.5451V47.9951H162.877V15.9951H155.882L142.892 36.4451V15.9951ZM198 35.9951H190.756C189.656 39.5451 186.309 41.9951 182.362 41.9951C176.616 41.9951 172.869 37.0451 172.869 31.9951C172.869 26.9451 176.516 21.9951 182.562 21.9951C186.559 21.9951 189.656 24.4451 190.756 27.9951H198C196.951 20.8451 191.305 15.4951 182.362 15.4951C172.469 15.4951 165.874 22.4451 165.874 31.9951C165.874 41.5451 172.469 48.4951 182.362 48.4951C191.305 48.4951 196.951 43.2451 198 35.9951Z" fill="#1A1A1A" />
</svg>