<svg width="270" height="54" viewBox="0 0 270 54" fill="none" xmlns="http://www.w3.org/2000/svg">
  <g clip-path="url(#clip0_71_581)">
    <path fill-rule="evenodd" clip-rule="evenodd" d="M53.654 26.4255C53.654 11.834 41.6401 0 26.827 0C12.0138 0 0 11.834 0 26.4255C0 41.017 12.0138 52.8511 26.827 52.8511C41.6401 52.8511 53.654 41.017 53.654 26.4255Z" fill="#FC3F1D" />
    <path fill-rule="evenodd" clip-rule="evenodd" d="M30.4039 14.9742H27.935C23.3472 14.9742 20.995 17.2913 20.995 20.5849C20.995 24.3381 22.6668 26.0998 26.0299 28.3976L28.8292 30.2742L20.7811 42.1657H14.7354L22.0059 31.5955C17.8652 28.6274 15.5129 25.7551 15.5129 21.0253C15.5129 14.9742 19.7703 10.8955 27.9156 10.8955H35.9637V42.2806H30.365V14.9742H30.4039Z" fill="white" />
    <path fill-rule="evenodd" clip-rule="evenodd" d="M84.7967 0.0576172C72.8995 0.0576172 63.2573 9.55549 63.2573 21.2746C63.2573 27.1342 65.6679 32.4385 69.5558 36.2683C73.4632 40.1172 82.6388 45.6704 83.1832 51.5108C83.2609 52.3917 83.9024 53.1002 84.7967 53.1002C85.6909 53.1002 86.3324 52.3917 86.4102 51.5108C86.9545 45.6704 96.1301 40.1172 100.038 36.2683C103.925 32.4193 106.336 27.1151 106.336 21.2746C106.336 9.55549 96.6939 0.0576172 84.7967 0.0576172Z" fill="#FF4433" />
    <path fill-rule="evenodd" clip-rule="evenodd" d="M84.7966 28.7043C88.9567 28.7043 92.3392 25.3724 92.3392 21.2745C92.3392 17.1766 88.9567 13.8447 84.7966 13.8447C80.6364 13.8447 77.2539 17.1766 77.2539 21.2745C77.2539 25.3724 80.6364 28.7043 84.7966 28.7043Z" fill="white" />
    <path fill-rule="evenodd" clip-rule="evenodd" d="M248.519 40.347H245.311V31.1363H248.675C251.649 31.1363 253.379 32.4576 253.379 35.7704C253.379 39.0831 251.454 40.347 248.5 40.347H248.519ZM263.079 16.9469V45.7278H270V16.9469H263.079ZM238.41 16.9469V45.7278H248.927C255.731 45.7278 260.533 42.3001 260.533 35.5406C260.533 29.1257 256.237 25.7555 249.024 25.7555H245.311V16.9469H238.41ZM234.347 22.3278V16.9469H211.175V22.3278H219.301V45.7278H226.202V22.3278H234.328H234.347ZM196.906 40.9214C193.252 40.9214 191.366 38.0108 191.366 31.3852C191.366 24.7597 193.349 21.7916 197.237 21.7916C201.125 21.7916 202.855 24.7023 202.855 31.3278C202.855 37.9533 200.872 40.9214 196.887 40.9214H196.906ZM190.86 16.9661H184.465V54.0193H191.366V42.3576C193.115 44.9235 195.662 46.2831 198.636 46.2831C205.363 46.2831 210.009 40.9789 210.009 31.3087C210.009 21.6384 205.479 16.3916 198.986 16.3916C195.72 16.3916 193.057 17.8661 191.21 20.6618L190.86 16.9469V16.9661ZM172.004 38.8725C171.129 40.1363 169.496 41.1704 167.066 41.1704C164.17 41.1704 162.712 39.5618 162.712 37.1108C162.712 33.8363 165.103 32.6491 171.032 32.6491H172.023V38.8725H172.004ZM178.905 26.1193C178.905 19.1491 175.289 16.5257 167.98 16.5257C163.392 16.5257 159.796 17.9427 157.696 19.1682V24.8363C159.543 23.4384 163.606 21.964 167.163 21.964C170.468 21.964 171.984 23.0938 171.984 26.1959V27.7852H170.876C160.301 27.7852 155.616 31.2321 155.616 37.0533C155.616 42.8746 159.212 46.1491 164.558 46.1491C168.621 46.1491 170.371 44.8278 171.693 43.4682H171.984C172.043 44.215 172.276 45.1725 172.49 45.7661H179.235C179.002 43.4299 178.886 41.0746 178.886 38.7384V26.1384L178.905 26.1193ZM147.14 45.7469H155.324L140.978 24.8746L153.983 5.99376H146.849L134.349 24.281V5.97461H127.331V45.7278H134.349V27.0767L147.14 45.7278V45.7469Z" fill="black" />
  </g>
  <defs>
    <clipPath id="clip0_71_581">
      <rect width="270" height="54" fill="white" />
    </clipPath>
  </defs>
</svg>