<svg width="36" height="36" viewBox="0 0 36 36" fill="none" xmlns="http://www.w3.org/2000/svg">
  <path d="M24 24C24.3674 24 24.722 24.1349 24.9966 24.3791C25.2711 24.6232 25.4465 24.9596 25.4895 25.3245L25.5 25.5V31.5C25.5 31.8674 25.3651 32.222 25.1209 32.4966C24.8768 32.7711 24.5404 32.9465 24.1755 32.9895L24 33H12C11.6326 32.9999 11.278 32.8651 11.0034 32.6209C10.7289 32.3768 10.5535 32.0404 10.5105 31.6755L10.5 31.5V25.5C10.5 25.1326 10.6349 24.778 10.8791 24.5034C11.1232 24.2289 11.4596 24.0535 11.8245 24.0105L12 24H24ZM28.5 10.5C29.6935 10.5 30.8381 10.9741 31.682 11.818C32.5259 12.6619 33 13.8065 33 15V25.5C33 26.2956 32.6839 27.0587 32.1213 27.6213C31.5587 28.1839 30.7956 28.5 30 28.5H28.5V24C28.5 23.2043 28.1839 22.4413 27.6213 21.8787C27.0587 21.3161 26.2956 21 25.5 21H10.5C9.70435 21 8.94129 21.3161 8.37868 21.8787C7.81607 22.4413 7.5 23.2043 7.5 24V28.5H6C5.20435 28.5 4.44129 28.1839 3.87868 27.6213C3.31607 27.0587 3 26.2956 3 25.5V15C3 13.8065 3.47411 12.6619 4.31802 11.818C5.16193 10.9741 6.30653 10.5 7.5 10.5H28.5ZM25.5 13.5H22.5C22.1177 13.5004 21.75 13.6468 21.4719 13.9093C21.1939 14.1717 21.0266 14.5304 21.0042 14.9121C20.9818 15.2938 21.106 15.6696 21.3514 15.9627C21.5968 16.2559 21.9449 16.4443 22.3245 16.4895L22.5 16.5H25.5C25.8823 16.4996 26.25 16.3532 26.528 16.0907C26.8061 15.8283 26.9733 15.4696 26.9958 15.0879C27.0182 14.7062 26.894 14.3304 26.6486 14.0373C26.4032 13.7441 26.0551 13.5557 25.6755 13.5105L25.5 13.5ZM25.5 3C25.8978 3 26.2794 3.15804 26.5607 3.43934C26.842 3.72064 27 4.10218 27 4.5V7.5H9V4.5C9 4.10218 9.15804 3.72064 9.43934 3.43934C9.72064 3.15804 10.1022 3 10.5 3H25.5Z" fill="#331609" />
</svg>