<svg width="36" height="36" viewBox="0 0 36 36" fill="none" xmlns="http://www.w3.org/2000/svg">
  <path d="M18 3C26.2845 3 33 9.7155 33 18C33 26.2845 26.2845 33 18 33C9.7155 33 3 26.2845 3 18C3 9.7155 9.7155 3 18 3ZM18 24C17.6022 24 17.2206 24.158 16.9393 24.4393C16.658 24.7206 16.5 25.1022 16.5 25.5C16.5 25.8978 16.658 26.2794 16.9393 26.5607C17.2206 26.842 17.6022 27 18 27C18.3978 27 18.7794 26.842 19.0607 26.5607C19.342 26.2794 19.5 25.8978 19.5 25.5C19.5 25.1022 19.342 24.7206 19.0607 24.4393C18.7794 24.158 18.3978 24 18 24ZM18 9.75C16.5579 9.75 15.1748 10.3229 14.1551 11.3426C13.1354 12.3623 12.5625 13.7454 12.5625 15.1875C12.5625 15.5853 12.7205 15.9669 13.0018 16.2482C13.2831 16.5295 13.6647 16.6875 14.0625 16.6875C14.4603 16.6875 14.8419 16.5295 15.1232 16.2482C15.4045 15.9669 15.5625 15.5853 15.5625 15.1875C15.563 14.7451 15.6839 14.3111 15.9123 13.9321C16.1406 13.5532 16.4678 13.2435 16.8588 13.0364C17.2498 12.8292 17.6897 12.7324 18.1315 12.7563C18.5733 12.7802 19.0003 12.9238 19.3667 13.1719C19.733 13.42 20.025 13.7631 20.2111 14.1645C20.3973 14.5658 20.4708 15.0103 20.4236 15.4502C20.3764 15.8901 20.2104 16.3089 19.9433 16.6616C19.6762 17.0144 19.3181 17.2878 18.9075 17.4525C17.8935 17.8575 16.5 18.8955 16.5 20.625V21C16.5 21.3978 16.658 21.7794 16.9393 22.0607C17.2206 22.342 17.6022 22.5 18 22.5C18.3978 22.5 18.7794 22.342 19.0607 22.0607C19.342 21.7794 19.5 21.3978 19.5 21C19.5 20.634 19.575 20.451 19.8915 20.295L20.022 20.235C21.1932 19.7638 22.1641 18.8999 22.7681 17.7914C23.3721 16.6828 23.5717 15.3987 23.3327 14.1591C23.0936 12.9195 22.4308 11.8016 21.4579 10.9972C20.4849 10.1928 19.2624 9.75184 18 9.75Z" fill="#2D1C15" />
</svg>