<svg width="36" height="36" viewBox="0 0 36 36" fill="none" xmlns="http://www.w3.org/2000/svg">
  <path d="M26.7751 29.9249L20.1376 23.2874L23.2876 20.1374L29.9251 26.7749C30.3501 27.1999 30.5626 27.7249 30.5626 28.3499C30.5626 28.9749 30.3501 29.4999 29.9251 29.9249C29.5001 30.3499 28.9751 30.5624 28.3501 30.5624C27.7251 30.5624 27.2001 30.3499 26.7751 29.9249ZM6.0751 29.9249C5.6501 29.4999 5.4376 28.9749 5.4376 28.3499C5.4376 27.7249 5.6501 27.1999 6.0751 26.7749L14.8501 17.9999L12.3001 15.4499C12.0251 15.7249 11.6751 15.8624 11.2501 15.8624C10.8251 15.8624 10.4751 15.7249 10.2001 15.4499L9.3376 14.5874V17.9624C9.3376 18.3124 9.1876 18.5499 8.8876 18.6749C8.5876 18.7999 8.3126 18.7374 8.0626 18.4874L3.9751 14.3999C3.7251 14.1499 3.6626 13.8749 3.7876 13.5749C3.9126 13.2749 4.1501 13.1249 4.5001 13.1249H7.8751L7.0501 12.2999C6.7501 11.9999 6.6001 11.6499 6.6001 11.2499C6.6001 10.8499 6.7501 10.4999 7.0501 10.1999L11.3251 5.9249C11.8251 5.4249 12.3626 5.0624 12.9376 4.8374C13.5126 4.6124 14.1001 4.4999 14.7001 4.4999C15.2001 4.4999 15.6691 4.5749 16.1071 4.7249C16.5451 4.8749 16.9761 5.0999 17.4001 5.3999C17.6001 5.5249 17.7066 5.6999 17.7196 5.9249C17.7326 6.1499 17.6511 6.3499 17.4751 6.5249L14.6251 9.3749L15.4501 10.1999C15.7251 10.4749 15.8626 10.8249 15.8626 11.2499C15.8626 11.6749 15.7251 12.0249 15.4501 12.2999L18.0001 14.8499L21.3751 11.4749C21.2751 11.1999 21.1941 10.9124 21.1321 10.6124C21.0701 10.3124 21.0386 10.0124 21.0376 9.7124C21.0376 8.2374 21.5441 6.9934 22.5571 5.9804C23.5701 4.9674 24.8136 4.4614 26.2876 4.4624C26.4876 4.4624 26.6751 4.4689 26.8501 4.4819C27.0251 4.4949 27.2001 4.5259 27.3751 4.5749C27.6001 4.6499 27.7441 4.8064 27.8071 5.0444C27.8701 5.2824 27.8136 5.4884 27.6376 5.6624L25.2001 8.0999C25.0501 8.2499 24.9751 8.4249 24.9751 8.6249C24.9751 8.8249 25.0501 8.9999 25.2001 9.1499L26.8501 10.7999C27.0001 10.9499 27.1751 11.0249 27.3751 11.0249C27.5751 11.0249 27.7501 10.9499 27.9001 10.7999L30.3376 8.3624C30.5126 8.1874 30.7191 8.1249 30.9571 8.1749C31.1951 8.2249 31.3511 8.3749 31.4251 8.6249C31.4751 8.7999 31.5066 8.9749 31.5196 9.1499C31.5326 9.3249 31.5386 9.5124 31.5376 9.7124C31.5376 11.1874 31.0316 12.4309 30.0196 13.4429C29.0076 14.4549 27.7636 14.9614 26.2876 14.9624C25.9876 14.9624 25.6876 14.9374 25.3876 14.8874C25.0876 14.8374 24.8001 14.7499 24.5251 14.6249L9.2251 29.9249C8.8001 30.3499 8.2751 30.5624 7.6501 30.5624C7.0251 30.5624 6.5001 30.3499 6.0751 29.9249Z" fill="#331609" />
</svg>