<svg width="36" height="36" viewBox="0 0 36 36" fill="none" xmlns="http://www.w3.org/2000/svg">
  <path fill-rule="evenodd" clip-rule="evenodd" d="M24.2055 7.09188L26.9505 9.83688C30.984 13.8719 33 15.8879 33 18.3929C33 20.8994 30.984 22.9154 26.9505 26.9489C22.9155 30.9839 20.8995 32.9999 18.393 32.9999C15.888 32.9999 13.8705 30.9839 9.83704 26.9504L7.09204 24.2054C4.77454 21.8864 3.61504 20.7284 3.18454 19.2239C2.75254 17.7194 3.12154 16.1219 3.85954 12.9284L4.28404 11.0864C4.90354 8.39838 5.21404 7.05438 6.13354 6.13338C7.05304 5.21238 8.39854 4.90338 11.0865 4.28388L12.9285 3.85788C16.1235 3.12138 17.7195 2.75238 19.224 3.18288C20.7285 3.61488 21.888 4.77438 24.2055 7.09188ZM16.719 21.4919C15.7095 20.4839 15.717 19.0349 16.3215 17.8874C16.1719 17.6712 16.1027 17.4095 16.1259 17.1476C16.1491 16.8857 16.2634 16.6402 16.4487 16.4538C16.6341 16.2674 16.8789 16.1517 17.1406 16.127C17.4024 16.1023 17.6645 16.17 17.8815 16.3184C18.3915 16.0484 18.951 15.9044 19.509 15.9104C19.8074 15.9132 20.0925 16.0344 20.3015 16.2473C20.5105 16.4603 20.6263 16.7475 20.6235 17.0459C20.6208 17.3442 20.4996 17.6293 20.2866 17.8383C20.0737 18.0473 19.7864 18.1632 19.488 18.1604C19.1407 18.1732 18.8125 18.3225 18.5745 18.5759C17.994 19.1564 18.1455 19.7384 18.309 19.9019C18.474 20.0654 19.0545 20.2169 19.635 19.6364C20.811 18.4604 22.842 18.0704 24.1425 19.3709C25.152 20.3804 25.1445 21.8294 24.54 22.9769C24.6888 23.1931 24.7572 23.4545 24.7336 23.7158C24.7099 23.9772 24.5956 24.222 24.4105 24.408C24.2254 24.594 23.9811 24.7094 23.7199 24.7343C23.4587 24.7592 23.197 24.6921 22.98 24.5444C22.3069 24.9137 21.5261 25.0368 20.772 24.8924C20.4796 24.8323 20.2231 24.6585 20.0588 24.4093C19.8945 24.1601 19.836 23.8558 19.896 23.5634C19.9561 23.271 20.1299 23.0144 20.3791 22.8501C20.6284 22.6859 20.9326 22.6273 21.225 22.6874C21.4905 22.7429 21.9195 22.6559 22.287 22.2884C22.8675 21.7064 22.716 21.1259 22.5525 20.9624C22.3875 20.7989 21.807 20.6474 21.2265 21.2279C20.0505 22.4039 18.0195 22.7939 16.719 21.4919ZM15.03 15.4394C15.3086 15.1607 15.5295 14.83 15.6802 14.466C15.8309 14.102 15.9084 13.7118 15.9084 13.3179C15.9083 12.9239 15.8306 12.5338 15.6798 12.1698C15.529 11.8059 15.3079 11.4752 15.0293 11.1966C14.7507 10.9181 14.4199 10.6972 14.0559 10.5465C13.6919 10.3958 13.3017 10.3182 12.9078 10.3183C12.5138 10.3184 12.1237 10.396 11.7597 10.5469C11.3958 10.6977 11.0651 10.9187 10.7865 11.1974C10.224 11.7601 9.90808 12.5232 9.90822 13.3189C9.90836 14.1146 10.2246 14.8776 10.7873 15.4401C11.35 16.0027 12.1132 16.3186 12.9088 16.3185C13.7045 16.3183 14.4675 16.0021 15.03 15.4394Z" fill="#2D1C15" />
</svg>