<svg width="36" height="36" viewBox="0 0 36 36" fill="none" xmlns="http://www.w3.org/2000/svg">
  <path d="M24.36 17.265L26.715 14.91L21.09 9.28505L18.735 11.64L12.525 5.44505C11.355 4.27505 9.45 4.27505 8.28 5.44505L5.43 8.29505C4.26 9.46505 4.26 11.37 5.43 12.54L11.625 18.735L4.5 25.875V31.5H10.125L17.265 24.36L23.46 30.555C24.885 31.98 26.805 31.455 27.705 30.555L30.555 27.705C31.725 26.535 31.725 24.63 30.555 23.46L24.36 17.265ZM13.77 16.605L7.56 10.41L10.395 7.56005L12.3 9.46505L10.53 11.25L12.645 13.365L14.43 11.58L16.605 13.755L13.77 16.605ZM25.59 28.44L19.395 22.245L22.245 19.395L24.42 21.57L22.635 23.355L24.75 25.47L26.535 23.685L28.44 25.59L25.59 28.44ZM31.065 10.56C31.2041 10.4213 31.3144 10.2564 31.3896 10.075C31.4649 9.89352 31.5037 9.699 31.5037 9.50255C31.5037 9.30609 31.4649 9.11157 31.3896 8.93011C31.3144 8.74865 31.2041 8.58382 31.065 8.44505L27.555 4.93505C26.85 4.23005 25.875 4.50005 25.44 4.93505L22.695 7.68005L28.32 13.305L31.065 10.56Z" fill="#2D1C15" />
</svg>