<svg width="36" height="36" viewBox="0 0 36 36" fill="none" xmlns="http://www.w3.org/2000/svg">
  <path d="M2.62501 19.9875C2.20001 19.9875 1.84401 19.844 1.55701 19.557C1.27001 19.27 1.12601 18.9135 1.12501 18.4875C1.12401 18.0615 1.26801 17.7055 1.55701 17.4195C1.84601 17.1335 2.20201 16.9895 2.62501 16.9875H7.875C8.3 16.9875 8.6565 17.1315 8.9445 17.4195C9.2325 17.7075 9.37601 18.0635 9.375 18.4875C9.37401 18.9115 9.23001 19.268 8.943 19.557C8.656 19.846 8.3 19.9895 7.875 19.9875H2.62501ZM10.5 30C9.25 30 8.1875 29.5625 7.3125 28.6875C6.43751 27.8125 6 26.75 6 25.5H4.12501C3.62501 25.5 3.22501 25.3125 2.92501 24.9375C2.62501 24.5625 2.53751 24.1375 2.66251 23.6625L3.00001 22.2375H7.6875C8.7375 22.2375 9.625 21.875 10.35 21.15C11.075 20.425 11.4375 19.5375 11.4375 18.4875C11.4375 18.1625 11.4 17.8625 11.325 17.5875C11.25 17.3125 11.15 17.0375 11.025 16.7625H12.45C13.5 16.7625 14.3875 16.4 15.1125 15.675C15.8375 14.95 16.2 14.0625 16.2 13.0125C16.2 11.9625 15.8375 11.075 15.1125 10.35C14.3875 9.625 13.5 9.2625 12.45 9.2625H6.75L6.97501 8.3625C7.12501 7.6625 7.469 7.094 8.007 6.657C8.545 6.22 9.176 6.001 9.90001 6H25.125C25.625 6 26.025 6.1875 26.325 6.5625C26.625 6.9375 26.7125 7.3625 26.5875 7.8375L25.6125 12H28.5C28.975 12 29.425 12.1065 29.85 12.3195C30.275 12.5325 30.625 12.826 30.9 13.2L33.7125 16.9125C33.9875 17.2625 34.1625 17.644 34.2375 18.057C34.3125 18.47 34.3125 18.8885 34.2375 19.3125L33.225 24.3C33.15 24.65 32.975 24.9375 32.7 25.1625C32.425 25.3875 32.1125 25.5 31.7625 25.5H30C30 26.75 29.5625 27.8125 28.6875 28.6875C27.8125 29.5625 26.75 30 25.5 30C24.25 30 23.1875 29.5625 22.3125 28.6875C21.4375 27.8125 21 26.75 21 25.5H15C15 26.75 14.5625 27.8125 13.6875 28.6875C12.8125 29.5625 11.75 30 10.5 30ZM5.625 14.5125C5.20001 14.5125 4.84401 14.3685 4.55701 14.0805C4.27001 13.7925 4.126 13.4365 4.12501 13.0125C4.12401 12.5885 4.26801 12.2325 4.55701 11.9445C4.84601 11.6565 5.202 11.5125 5.625 11.5125H12.375C12.8 11.5125 13.1565 11.6565 13.4445 11.9445C13.7325 12.2325 13.876 12.5885 13.875 13.0125C13.874 13.4365 13.73 13.793 13.443 14.082C13.156 14.371 12.8 14.5145 12.375 14.5125H5.625ZM10.5 27C10.925 27 11.2815 26.856 11.5695 26.568C11.8575 26.28 12.001 25.924 12 25.5C11.999 25.076 11.855 24.72 11.568 24.432C11.281 24.144 10.925 24 10.5 24C10.075 24 9.71901 24.144 9.432 24.432C9.14501 24.72 9.00101 25.076 9 25.5C8.999 25.924 9.14301 26.2805 9.432 26.5695C9.72101 26.8585 10.077 27.002 10.5 27ZM25.5 27C25.925 27 26.2815 26.856 26.5695 26.568C26.8575 26.28 27.001 25.924 27 25.5C26.999 25.076 26.855 24.72 26.568 24.432C26.281 24.144 25.925 24 25.5 24C25.075 24 24.719 24.144 24.432 24.432C24.145 24.72 24.001 25.076 24 25.5C23.999 25.924 24.143 26.2805 24.432 26.5695C24.721 26.8585 25.077 27.002 25.5 27ZM23.8875 19.5H31.125L31.275 18.7125L28.5 15H24.9375L23.8875 19.5Z" fill="#331609" />
</svg>